<svg width="12.002441" height="12.000000" viewBox="0 0 12.0024 12" fill="none">
	<defs/>
	<path id="path" d="M0.5 11.5L2.42 11.28C2.66 11.25 2.78 11.24 2.89 11.21C2.98 11.17 3.08 11.13 3.16 11.07C3.26 11.01 3.34 10.93 3.51 10.76L11.03 3.24C11.65 2.61 11.65 1.6 11.03 0.97C10.4 0.34 9.38 0.34 8.75 0.97L1.23 8.48C1.07 8.65 0.98 8.73 0.92 8.83C0.86 8.92 0.82 9.01 0.79 9.11C0.75 9.22 0.74 9.33 0.71 9.57L0.5 11.5ZM9.64 4.6L9.67 4.6C9.87 4.79 9.87 5.11 9.67 5.3C9.47 5.5 9.16 5.5 8.97 5.3L8.97 5.28L9.64 4.6ZM6.72 3.03L6.69 3.03C6.49 2.83 6.49 2.52 6.69 2.32C6.89 2.12 7.2 2.12 7.4 2.32L7.4 2.35L6.72 3.03Z" fill="#FFFFFF" fillOpacity="1.000000" fillRule="nonzero"/>
	<path id="path" d="M9.32 4.95L7.04 2.67M2.42 11.28C2.66 11.25 2.78 11.24 2.89 11.21C2.98 11.17 3.08 11.13 3.16 11.07C3.26 11.01 3.34 10.93 3.51 10.76L11.03 3.24C11.65 2.61 11.65 1.6 11.03 0.97C10.4 0.34 9.38 0.34 8.75 0.97L1.23 8.48C1.07 8.65 0.98 8.73 0.92 8.83C0.86 8.92 0.82 9.01 0.79 9.11C0.75 9.22 0.74 9.33 0.71 9.57L0.5 11.5L2.42 11.28Z" stroke="#0E0E16" strokeOpacity="1.000000" strokeWidth="1.000000" strokeLinejoin="round" strokeLinecap="round"/>
</svg>
