<svg width="33.000000" height="39.000000" viewBox="0 0 33 39" fill="none" xmlns="http://www.w3.org/2000/svg" xmlns:xlink="http://www.w3.org/1999/xlink">
	<desc>
			Created with Pixso.
	</desc>
	<defs/>
	<path id="path" d="M5.21 31.36L33 31.36L33 0L5.21 0C2.33 0 0 2.28 0 5.08L0 34.26C0 36.87 2.33 39 5.21 39L33 39L33 37.3L5.21 37.3C3.32 37.3 1.73 35.91 1.73 34.26C1.73 32.64 3.26 31.36 5.21 31.36ZM26.66 25.18C26.49 25.35 26.27 25.43 26.05 25.43C25.83 25.43 25.6 25.35 25.44 25.18L19.77 19.68L18.24 21.17L16.64 19.58L19.38 16.9L26.66 23.98C27 24.31 27 24.85 26.66 25.18ZM8.93 6.78L15.64 13.38L13 15.96L8.88 11.86C7.44 10.46 7.46 8.17 8.93 6.78ZM7.23 23.98L18.54 12.94C18.51 12.87 18.47 12.8 18.45 12.73C18.1 11.45 18.17 9.82 19.35 8.68C21.12 6.9 24.13 6.14 25.43 7.4C26.14 8.13 26.23 9.3 25.88 10.49C25.59 11.48 24.99 12.49 24.18 13.26C22.93 14.48 21.32 14.57 20.02 14.25C19.93 14.22 19.85 14.18 19.76 14.14L7.59 25.18C7.42 25.35 8.06 25.43 7.84 25.43C7.62 25.43 7.4 25.35 7.23 25.18C6.89 24.85 6.89 24.31 7.23 23.98Z" fill="#59B57C" fill-opacity="1.000000" fill-rule="nonzero"/>
</svg>
