<svg width="15.000000" height="11.000000" viewBox="0 0 15 11" fill="none" xmlns="http://www.w3.org/2000/svg" xmlns:xlink="http://www.w3.org/1999/xlink">
	<desc>
			Created with Pixso.
	</desc>
	<defs/>
	<path id="path" d="M14.42 8.79L14.14 8.79C14.09 5.24 11.58 2.31 8.36 1.86C8.5 1.67 8.58 1.42 8.58 1.16C8.58 0.52 8.1 0 7.5 0C6.89 0 6.41 0.52 6.41 1.16C6.41 1.42 6.49 1.67 6.63 1.86C3.41 2.31 0.9 5.24 0.85 8.79L0.57 8.79C0.25 8.79 0 9.07 0 9.41L0 10.38C0 10.72 0.25 11 0.57 11L14.42 11C14.74 11 15 10.72 15 10.38L15 9.41C15 9.07 14.74 8.79 14.42 8.79Z" fill="#59B57C" fill-opacity="1.000000" fill-rule="nonzero"/>
</svg>
