<svg width="13.831055" height="13.830994" viewBox="0 0 13.8311 13.831" fill="none" xmlns="http://www.w3.org/2000/svg" xmlns:xlink="http://www.w3.org/1999/xlink">
	<desc>
			Created with Pixso.
	</desc>
	<defs/>
	<path id="path" d="M11.9 6.2C11.9 9.35 9.35 11.9 6.2 11.9C3.05 11.9 0.5 9.35 0.5 6.2C0.5 3.05 3.05 0.5 6.2 0.5C9.35 0.5 11.9 3.05 11.9 6.2ZM6.22 3.11L6.2 3.13C5.92 3.13 5.7 2.91 5.7 2.63C5.7 2.35 5.92 2.13 6.2 2.13L6.22 2.15L6.22 3.11ZM10.24 6.18L10.26 6.2C10.26 6.48 10.04 6.7 9.76 6.7C9.48 6.7 9.26 6.48 9.26 6.2L9.28 6.18L10.24 6.18ZM9.9 10.58L9.88 10.58C9.68 10.38 9.68 10.07 9.88 9.87C10.07 9.68 10.39 9.68 10.58 9.87L10.58 9.9L9.9 10.58ZM13.65 12.97L13.68 12.97C13.88 13.17 13.88 13.48 13.68 13.68C13.48 13.88 13.17 13.88 12.97 13.68L12.97 13.65L13.65 12.97Z" fill="#FFFFFF" fill-opacity="0" fill-rule="nonzero"/>
	<path id="path" d="M6.2 2.63C8.16 2.63 9.76 4.23 9.76 6.2M10.23 10.23L13.32 13.32M6.2 11.9C3.05 11.9 0.5 9.35 0.5 6.2C0.5 3.05 3.05 0.5 6.2 0.5C9.35 0.5 11.9 3.05 11.9 6.2C11.9 9.35 9.35 11.9 6.2 11.9Z" stroke="#000000" stroke-opacity="1.000000" stroke-width="1.000000" stroke-linejoin="round" stroke-linecap="round"/>
</svg>
