<svg width="12.000000" height="12.000000" viewBox="0 0 12 12" fill="none" xmlns="http://www.w3.org/2000/svg" xmlns:xlink="http://www.w3.org/1999/xlink">
	<desc>
			Created with Pixso.
	</desc>
	<defs/>
	<path id="path" d="M4.53 0.99L5.01 1.85C5.45 2.64 5.27 3.67 4.58 4.37C4.58 4.37 3.75 5.2 5.27 6.72C6.79 8.24 7.62 7.41 7.62 7.41C8.32 6.72 9.35 6.54 10.14 6.98L11 7.46C12.2 8.13 12.34 9.8 11.29 10.84C10.66 11.47 9.9 11.96 9.04 11.99C7.61 12.04 5.19 11.68 2.75 9.24C0.31 6.8 -0.05 4.38 0 2.95C0.03 2.09 0.52 1.33 1.15 0.7C2.19 -0.35 3.86 -0.21 4.53 0.99Z" fill="#FFFFFF" fill-opacity="1.000000" fill-rule="nonzero"/>
</svg>
