<svg width="12.529297" height="12.500000" viewBox="0 0 12.5293 12.5" fill="none" xmlns="http://www.w3.org/2000/svg" xmlns:xlink="http://www.w3.org/1999/xlink">
	<desc>
			Created with Pixso.
	</desc>
	<defs/>
	<path id="path" d="M6.26 0C2.8 0 0 2.79 0 6.25C0 9.7 2.8 12.5 6.26 12.5C9.72 12.5 12.52 9.7 12.52 6.25C12.52 2.79 9.72 0 6.26 0ZM6.89 3.12C6.89 2.77 6.61 2.5 6.26 2.5C5.91 2.5 5.63 2.77 5.63 3.12L5.63 6.25C5.63 6.59 5.91 6.87 6.26 6.87C6.61 6.87 6.89 6.59 6.89 6.25L6.89 3.12Z" fill="#59B57C" fill-opacity="1.000000" fill-rule="evenodd"/>
	<path id="path" d="M10.83 0.18C10.58 0.42 10.58 0.82 10.83 1.06L11.45 1.69C11.7 1.93 12.1 1.93 12.34 1.69C12.59 1.44 12.59 1.05 12.34 0.8L11.71 0.18C11.47 -0.07 11.07 -0.07 10.83 0.18Z" fill="#59B57C" fill-opacity="1.000000" fill-rule="evenodd"/>
</svg>
