<svg width="12.000000" height="10.000000" viewBox="0 0 12 10" fill="none" xmlns="http://www.w3.org/2000/svg" xmlns:xlink="http://www.w3.org/1999/xlink">
	<desc>
			Created with Pixso.
	</desc>
	<defs/>
	<path id="path" d="M10.97 0.08C10.97 0.08 12.08 -0.35 11.99 0.71C11.96 1.14 11.68 2.65 11.46 4.29L10.72 9.15C10.72 9.15 10.66 9.85 10.1 9.98C9.55 10.1 8.72 9.55 8.57 9.42C8.45 9.33 6.25 7.94 5.48 7.26C5.26 7.07 5.02 6.7 5.51 6.27L8.75 3.18C9.12 2.8 9.49 1.94 7.95 2.99L3.63 5.93C3.63 5.93 3.14 6.24 2.21 5.96L0.21 5.34C0.21 5.34 -0.53 4.88 0.73 4.42C3.82 2.96 7.61 1.47 10.97 0.08Z" fill="#FFFFFF" fill-opacity="1.000000" fill-rule="nonzero"/>
</svg>
