<svg width="12.000000" height="13.000000" viewBox="0 0 12 13" fill="none">
	<defs/>
	<path id="path" d="M2.74 2.5C2.74 2.44 2.75 2.39 2.77 2.33L2.8 2.32L3.23 2.47L3.41 1.95C3.59 1.43 3.68 1.17 3.84 0.97C3.99 0.8 4.18 0.67 4.39 0.59C4.63 0.5 4.91 0.5 5.48 0.5L6.43 0.5C6.99 0.5 7.27 0.5 7.51 0.59C7.73 0.67 7.92 0.8 8.06 0.97C8.23 1.17 8.32 1.43 8.5 1.95L8.68 2.5L8.68 2.5L9.19 2.32L9.22 2.33C9.24 2.39 9.25 2.44 9.25 2.5L9.62 2.5C9.62 2.21 9.84 2 10.12 2C10.4 2 10.62 2.21 10.62 2.5L10.6 2.52L10.05 2.52L10.05 9.3C10.05 10.42 10.05 10.98 9.82 11.4C9.63 11.78 9.31 12.09 8.93 12.28C8.49 12.5 7.92 12.5 6.77 12.5L5.13 12.5C3.99 12.5 3.41 12.5 2.98 12.28C2.59 12.09 2.28 11.78 2.08 11.4C1.86 10.98 1.86 10.42 1.86 9.3L1.86 2.52L1.39 2.52L1.37 2.5C1.37 2.21 1.59 2 1.87 2C2.15 2 2.37 2.21 2.37 2.5L2.74 2.5ZM0.52 2.97L0.5 3C0.21 3 0 2.78 0 2.5C0 2.21 0.21 2 0.5 2L0.52 2.02L0.52 2.97ZM11.5 2L11.48 2.02L11.48 2.97L11.5 3C11.78 3 12 2.78 12 2.5C12 2.21 11.78 2 11.5 2Z" fill="#A31E1E" fillOpacity="0" fillRule="evenodd"/>
	<path id="path" d="M4.62 6.5L7.37 9.16M7.37 6.5L4.62 9.16M0.5 2.5L11.5 2.5M8.75 2.5L8.56 1.95C8.38 1.43 8.29 1.17 8.12 0.97C7.97 0.8 7.78 0.67 7.57 0.59C7.33 0.5 7.04 0.5 6.47 0.5L5.52 0.5C4.95 0.5 4.66 0.5 4.42 0.59C4.21 0.67 4.02 0.8 3.87 0.97C3.7 1.17 3.61 1.43 3.43 1.95L3.25 2.5M10.12 2.5L10.12 9.3C10.12 10.42 10.12 10.98 9.9 11.4C9.7 11.78 9.38 12.09 8.99 12.28C8.55 12.5 7.98 12.5 6.82 12.5L5.17 12.5C4.01 12.5 3.44 12.5 3 12.28C2.61 12.09 2.29 11.78 2.09 11.4C1.87 10.98 1.87 10.42 1.87 9.3L1.87 2.5" stroke="#D10000" strokeOpacity="1.000000" strokeWidth="1.000000" strokeLinecap="round"/>
</svg>
