<svg width="33.251465" height="34.500000" viewBox="0 0 33.2515 34.5" fill="none" xmlns="http://www.w3.org/2000/svg" xmlns:xlink="http://www.w3.org/1999/xlink">
	<desc>
			Created with Pixso.
	</desc>
	<defs/>
	<path id="path" d="M32.55 16.92C32.2 16.52 31.74 16.28 31.23 16.21C31.15 15.87 31.02 15.55 30.85 15.25C30.31 14.3 29.4 13.73 28.41 13.73C27.62 13.73 26.87 14.09 26.27 14.76C23.17 17.7 19.93 18.32 17.75 18.32C16.36 18.32 15.45 18.06 15.44 18.06L15.39 18.04L15.34 18.03C14.49 17.84 12.58 17.07 12.46 16.06C12.18 13.71 12.86 12.39 13.65 10.87C14.33 9.57 15.09 8.11 15.09 6.08C15.09 2.73 12.36 0 9 0C6.14 0 3.69 2 3.07 4.74C2.24 5.54 1.65 5.93 1.45 5.99C0.32 6.3 -0.09 7.19 0.01 7.93C0.25 9.71 3.02 10.01 4.49 10.04C5 10.89 5.09 11.86 4.12 15.28C2.41 19.73 2.73 24.2 5.01 27.87C7.25 31.49 11.29 34.06 15.29 34.42C15.85 34.47 16.41 34.5 16.95 34.5C22.37 34.5 26.9 31.99 30.06 27.24C32.38 23.75 33.14 20.29 33.17 20.14L33.18 20.08L33.19 20.01C33.36 18.63 33.14 17.59 32.55 16.92ZM4.74 8.46C4.74 8.46 4.73 8.47 4.72 8.48C2.61 8.47 0.83 7.78 1.86 7.5C2.33 7.37 2.91 6.96 3.42 6.52L3.54 7.03L3.74 7.14C3.76 7.16 4.07 7.34 4.34 7.6C4.48 7.72 4.61 7.87 4.69 8C4.78 8.13 4.81 8.23 4.8 8.3C4.8 8.35 4.8 8.38 4.74 8.46ZM31.64 19.82C31.64 19.82 28.86 32.93 16.95 32.93C16.46 32.93 15.95 32.91 15.42 32.86C9.3 32.31 1.84 25.48 5.61 15.77C6.89 11.31 6.48 10.16 5.65 8.96C5.78 8.75 5.85 8.52 5.85 8.3C5.85 7.95 5.71 7.65 5.55 7.41C5.31 7.05 5 6.77 4.74 6.57C4.63 6.49 4.54 6.42 4.46 6.37L4.31 5.71C4.38 5.63 4.46 5.56 4.52 5.5C4.81 3.28 6.7 1.56 9 1.56C11.5 1.56 13.52 3.59 13.52 6.08C13.52 9.83 10.3 11.21 10.91 16.25C11.21 18.71 15 19.56 15 19.56C15 19.56 16.07 19.88 17.75 19.88C20.19 19.88 23.89 19.2 27.4 15.84C27.73 15.46 28.08 15.29 28.41 15.29C29.26 15.29 29.96 16.38 29.73 17.71C29.67 17.94 29.61 18.18 29.53 18.4C29.46 18.57 29.38 18.74 29.28 18.91C29.31 18.87 29.34 18.84 29.37 18.81C28.32 21.61 26.55 23.6 24.53 24.94C22.12 26.54 19.33 27.21 17.05 27.2C15.68 27.21 14.49 26.96 13.71 26.57C13.45 26.44 13.14 26.54 13.01 26.8C12.88 27.06 12.98 27.37 13.24 27.5C14.23 27.99 15.55 28.25 17.05 28.25C19.53 28.25 22.49 27.53 25.11 25.81C27.62 24.15 29.79 21.53 30.81 17.77C30.86 17.76 30.9 17.76 30.94 17.76C31.57 17.76 31.78 18.63 31.64 19.82Z" fill="#000000" fill-opacity="1.000000" fill-rule="nonzero"/>
</svg>
