<svg width="16.000000" height="9.000000" viewBox="0 0 16 9" fill="none" xmlns="http://www.w3.org/2000/svg" xmlns:xlink="http://www.w3.org/1999/xlink">
	<desc>
			Created with Pixso.
	</desc>
	<defs/>
	<path id="path" d="M14.24 6.3C14.24 6.3 15.53 7.56 15.85 8.14C15.98 8.36 16.03 8.55 15.97 8.68C15.86 8.88 15.49 8.99 15.37 9L13.08 9C12.92 9 12.59 8.96 12.18 8.68C11.88 8.47 11.58 8.12 11.27 7.77C10.83 7.27 10.45 6.83 10.06 6.83C10.01 6.83 9.96 6.84 9.92 6.85C9.62 6.95 9.25 7.36 9.25 8.46C9.25 8.8 8.98 9 8.78 9L7.74 9C7.38 9 5.52 8.87 3.87 7.16C1.86 5.07 0.04 0.87 0.02 0.84C-0.09 0.56 0.15 0.41 0.41 0.41L2.71 0.41C3.02 0.41 3.13 0.6 3.19 0.77C3.28 0.96 3.58 1.71 4.07 2.56C4.88 3.96 5.37 4.51 5.77 4.51C5.84 4.51 5.91 4.5 5.98 4.46C6.5 4.18 6.4 2.37 6.37 2C6.37 1.92 6.37 1.19 6.1 0.84C5.92 0.58 5.6 0.48 5.4 0.44C5.46 0.37 5.57 0.25 5.7 0.19C6.06 0.02 6.7 0 7.33 0L7.68 0C8.37 0 8.54 0.04 8.79 0.11C9.3 0.22 9.3 0.55 9.26 1.63C9.25 1.95 9.24 2.3 9.24 2.71C9.24 2.8 9.23 2.9 9.23 3C9.22 3.56 9.2 4.19 9.6 4.45C9.65 4.48 9.71 4.5 9.78 4.5C9.91 4.5 10.33 4.5 11.46 2.59C11.95 1.74 12.34 0.75 12.37 0.67C12.38 0.63 12.46 0.51 12.54 0.47C12.59 0.44 12.66 0.42 12.73 0.43L15.44 0.43C15.74 0.43 15.94 0.47 15.98 0.58C16.04 0.76 15.97 1.3 14.73 2.96C14.51 3.23 14.34 3.47 14.17 3.67C13.05 5.13 13.05 5.2 14.24 6.3Z" fill="#FFFFFF" fill-opacity="1.000000" fill-rule="nonzero"/>
</svg>
